{
  "accessors": [
    {
      "bufferView": 2,
      "componentType": 5126,
      "count": 10520,
      "max": [
        16.255247116088867,
        5.6234893798828125,
        13.254405975341797
      ],
      "min": [
        -16.255247116088867,
        -5.6234893798828125,
        -13.254405975341797
      ],
      "type": "VEC3"
    },
    {
      "bufferView": 2,
      "byteOffset": 126240,
      "componentType": 5126,
      "count": 10520,
      "max": [
        0.9999954104423523,
        0.9999913573265076,
        0.99998939037323
      ],
      "min": [
        -0.9999953508377075,
        -1.0,
        -1.0
      ],
      "type": "VEC3"
    },
    {
      "bufferView": 1,
      "componentType": 5126,
      "count": 10520,
      "max": [
        0.9992290139198303,
        0.9985049962997437
      ],
      "min": [
        0.0022330000065267086,
        0.0028719999827444553
      ],
      "type": "VEC2"
    },
    {
      "bufferView": 0,
      "componentType": 5125,
      "count": 10539,
      "type": "SCALAR"
    },
    {
      "bufferView": 2,
      "byteOffset": 252480,
      "componentType": 5126,
      "count": 3691,
      "max": [
        16.209938049316406,
        5.5767669677734375,
        13.20440673828125
      ],
      "min": [
        -16.209938049316406,
        -5.5802154541015625,
        -13.216426849365234
      ],
      "type": "VEC3"
    },
    {
      "bufferView": 2,
      "byteOffset": 296772,
      "componentType": 5126,
      "count": 3691,
      "max": [
        1.0,
        1.0,
        1.0
      ],
      "min": [
        -1.0,
        -0.9999702572822571,
        -1.0
      ],
      "type": "VEC3"
    },
    {
      "bufferView": 1,
      "byteOffset": 84160,
      "componentType": 5126,
      "count": 3691,
      "max": [
        0.9992290139198303,
        0.9985049962997437
      ],
      "min": [
        0.0022330000065267086,
        0.0028719999827444553
      ],
      "type": "VEC2"
    },
    {
      "bufferView": 0,
      "byteOffset": 42156,
      "componentType": 5125,
      "count": 10539,
      "type": "SCALAR"
    },
    {
      "bufferView": 2,
      "byteOffset": 341064,
      "componentType": 5126,
      "count": 220,
      "max": [
        6.885062217712402,
        0.686370849609375,
        1.0230803489685059
      ],
      "min": [
        -6.8850626945495605,
        -0.68634033203125,
        -1.0730805397033691
      ],
      "type": "VEC3"
    },
    {
      "bufferView": 2,
      "byteOffset": 343704,
      "componentType": 5126,
      "count": 220,
      "max": [
        0.9967316389083862,
        0.9981354475021362,
        1.0
      ],
      "min": [
        -0.9967321157455444,
        -0.9981354475021362,
        -0.9999997615814209
      ],
      "type": "VEC3"
    },
    {
      "bufferView": 1,
      "byteOffset": 113688,
      "componentType": 5126,
      "count": 220,
      "max": [
        0.999422013759613,
        0.964739978313446
      ],
      "min": [
        0.14459699392318726,
        0.2227959930896759
      ],
      "type": "VEC2"
    },
    {
      "bufferView": 0,
      "byteOffset": 84312,
      "componentType": 5125,
      "count": 636,
      "type": "SCALAR"
    },
    {
      "bufferView": 2,
      "byteOffset": 346344,
      "componentType": 5126,
      "count": 636,
      "max": [
        6.929388523101807,
        0.72821044921875,
        1.0730805397033691
      ],
      "min": [
        -6.929388523101807,
        -0.72821044921875,
        -1.0730805397033691
      ],
      "type": "VEC3"
    },
    {
      "bufferView": 2,
      "byteOffset": 353976,
      "componentType": 5126,
      "count": 636,
      "max": [
        0.9915896654129028,
        0.9977075457572937,
        0.9839783310890198
      ],
      "min": [
        -0.9915894865989685,
        -0.9977142214775085,
        -0.99886155128479
      ],
      "type": "VEC3"
    },
    {
      "bufferView": 1,
      "byteOffset": 115448,
      "componentType": 5126,
      "count": 636,
      "max": [
        0.999422013759613,
        0.964739978313446
      ],
      "min": [
        0.14459699392318726,
        0.2227959930896759
      ],
      "type": "VEC2"
    },
    {
      "bufferView": 0,
      "byteOffset": 86856,
      "componentType": 5125,
      "count": 636,
      "type": "SCALAR"
    },
    {
      "bufferView": 3,
      "componentType": 5126,
      "count": 149,
      "max": [
        5.0
      ],
      "min": [
        0.0416666679084301
      ],
      "type": "SCALAR"
    },
    {
      "bufferView": 5,
      "componentType": 5126,
      "count": 149,
      "max": [
        1.1653524679860778e-19,
        4.775877516178357e-20,
        0.9999686479568481,
        1.0
      ],
      "min": [
        -1.1167176083891983e-19,
        -4.1174136373700175e-20,
        -0.859799861907959,
        -0.4923597574234009
      ],
      "type": "VEC4"
    },
    {
      "bufferView": 3,
      "byteOffset": 596,
      "componentType": 5126,
      "count": 301,
      "max": [
        10.0
      ],
      "min": [
        0.0416666679084301
      ],
      "type": "SCALAR"
    },
    {
      "bufferView": 4,
      "componentType": 5126,
      "count": 301,
      "max": [
        0.03668079897761345,
        331.85723876953125,
        -0.3551872968673706
      ],
      "min": [
        -0.04441183805465698,
        331.7307434082031,
        -0.39659833908081055
      ],
      "type": "VEC3"
    },
    {
      "bufferView": 3,
      "byteOffset": 1800,
      "componentType": 5126,
      "count": 301,
      "max": [
        10.0
      ],
      "min": [
        0.0416666679084301
      ],
      "type": "SCALAR"
    },
    {
      "bufferView": 5,
      "byteOffset": 2384,
      "componentType": 5126,
      "count": 301,
      "max": [
        0.0008544622105546296,
        1.6401622815465089e-06,
        0.002262041438370943,
        1.0
      ],
      "min": [
        -0.00011101166455773637,
        -6.428411438719195e-07,
        -0.002257657004520297,
        0.9999974370002747
      ],
      "type": "VEC4"
    }
  ],
  "animations": [
    {
      "channels": [
        {
          "sampler": 0,
          "target": {
            "node": 7,
            "path": "rotation"
          }
        },
        {
          "sampler": 1,
          "target": {
            "node": 4,
            "path": "translation"
          }
        },
        {
          "sampler": 2,
          "target": {
            "node": 4,
            "path": "rotation"
          }
        }
      ],
      "name": "Take 001",
      "samplers": [
        {
          "input": 16,
          "interpolation": "LINEAR",
          "output": 17
        },
        {
          "input": 18,
          "interpolation": "LINEAR",
          "output": 19
        },
        {
          "input": 20,
          "interpolation": "LINEAR",
          "output": 21
        }
      ]
    }
  ],
  "asset": {
    "extras": {
      "author": "AntijnvanderGun (https://sketchfab.com/AntijnvanderGun)",
      "license": "CC-BY-4.0 (http://creativecommons.org/licenses/by/4.0/)",
      "source": "https://sketchfab.com/3d-models/plane-tooned-dfbca3289fe0499f8b6ff83fdf367c1e",
      "title": "PLane_tooned"
    },
    "generator": "Sketchfab-10.42.0",
    "version": "2.0"
  },
  "bufferViews": [
    {
      "buffer": 0,
      "byteLength": 89400,
      "name": "floatBufferViews",
      "target": 34963
    },
    {
      "buffer": 0,
      "byteLength": 120536,
      "byteOffset": 89400,
      "byteStride": 8,
      "name": "floatBufferViews",
      "target": 34962
    },
    {
      "buffer": 0,
      "byteLength": 361608,
      "byteOffset": 209936,
      "byteStride": 12,
      "name": "floatBufferViews",
      "target": 34962
    },
    {
      "buffer": 0,
      "byteLength": 3004,
      "byteOffset": 571544,
      "name": "floatBufferViews"
    },
    {
      "buffer": 0,
      "byteLength": 3612,
      "byteOffset": 574548,
      "byteStride": 12,
      "name": "floatBufferViews"
    },
    {
      "buffer": 0,
      "byteLength": 7200,
      "byteOffset": 578160,
      "byteStride": 16,
      "name": "floatBufferViews"
    }
  ],
  "buffers": [
    {
      "byteLength": 585360,
      "uri": "scene.bin"
    }
  ],
  "extensionsRequired": [
    "KHR_materials_pbrSpecularGlossiness"
  ],
  "extensionsUsed": [
    "KHR_materials_pbrSpecularGlossiness"
  ],
  "images": [
    {
      "uri": "textures/lambert1_diffuse.png"
    },
    {
      "uri": "textures/Unwrappe1_diffuse.png"
    }
  ],
  "materials": [
    {
      "extensions": {
        "KHR_materials_pbrSpecularGlossiness": {
          "diffuseFactor": [
            0.095990632,
            0.095990632,
            0.095990632,
            1.0
          ],
          "diffuseTexture": {
            "index": 0
          },
          "glossinessFactor": 0.4,
          "specularFactor": [
            0.0,
            0.0,
            0.0
          ]
        }
      },
      "name": "lambert1"
    },
    {
      "doubleSided": true,
      "extensions": {
        "KHR_materials_pbrSpecularGlossiness": {
          "diffuseFactor": [
            1.0,
            1.0,
            1.0,
            1.0
          ],
          "diffuseTexture": {
            "index": 1
          },
          "glossinessFactor": 0.0,
          "specularFactor": [
            0.0,
            0.0,
            0.0
          ]
        }
      },
      "name": "Unwrappe1"
    }
  ],
  "meshes": [
    {
      "name": "polySurface246_lambert1_0",
      "primitives": [
        {
          "attributes": {
            "NORMAL": 1,
            "POSITION": 0,
            "TEXCOORD_0": 2
          },
          "indices": 3,
          "material": 0,
          "mode": 4
        }
      ]
    },
    {
      "name": "polySurface246_Unwrappe1_0",
      "primitives": [
        {
          "attributes": {
            "NORMAL": 5,
            "POSITION": 4,
            "TEXCOORD_0": 6
          },
          "indices": 7,
          "material": 1,
          "mode": 4
        }
      ]
    },
    {
      "name": "polySurface247_Unwrappe1_0",
      "primitives": [
        {
          "attributes": {
            "NORMAL": 9,
            "POSITION": 8,
            "TEXCOORD_0": 10
          },
          "indices": 11,
          "material": 1,
          "mode": 4
        }
      ]
    },
    {
      "name": "polySurface247_lambert1_0",
      "primitives": [
        {
          "attributes": {
            "NORMAL": 13,
            "POSITION": 12,
            "TEXCOORD_0": 14
          },
          "indices": 15,
          "material": 0,
          "mode": 4
        }
      ]
    }
  ],
  "nodes": [
    {
      "children": [
        1
      ],
      "matrix": [
        1.0,
        0.0,
        0.0,
        0.0,
        0.0,
        -0.26777774095535256,
        -0.9634807109832765,
        0.0,
        0.0,
        0.9634807109832765,
        -0.26777774095535256,
        0.0,
        0.04403269663453102,
        12.257787704467754,
        88.7545166015625,
        1.0
      ],
      "name": "Sketchfab_model"
    },
    {
      "children": [
        2
      ],
      "matrix": [
        1.0,
        0.0,
        0.0,
        0.0,
        0.0,
        0.0,
        1.0,
        0.0,
        0.0,
        -1.0,
        0.0,
        0.0,
        0.0,
        0.0,
        0.0,
        1.0
      ],
      "name": "b5120a0018654986b9303f5ac8b1652c.fbx"
    },
    {
      "children": [
        3
      ],
      "name": "Object_2"
    },
    {
      "children": [
        4
      ],
      "name": "RootNode"
    },
    {
      "children": [
        5,
        6,
        7
      ],
      "name": "polySurface246",
      "rotation": [
        0.0008544600568711758,
        1.6373105609090999e-06,
        0.0019161890959367156,
        0.9999977946281433
      ],
      "translation": [
        0.026797369122505188,
        331.80352783203125,
        -0.35949403047561646
      ]
    },
    {
      "mesh": 0,
      "name": "polySurface246_lambert1_0"
    },
    {
      "mesh": 1,
      "name": "polySurface246_Unwrappe1_0"
    },
    {
      "children": [
        8,
        9
      ],
      "name": "polySurface247",
      "rotation": [
        1.7994566209248125e-20,
        -2.0270164308188512e-20,
        -0.7478370666503906,
        0.663882315158844
      ],
      "translation": [
        0.00013828277587890625,
        -0.4975433349609375,
        13.437298774719238
      ]
    },
    {
      "mesh": 2,
      "name": "polySurface247_Unwrappe1_0"
    },
    {
      "mesh": 3,
      "name": "polySurface247_lambert1_0"
    }
  ],
  "samplers": [
    {
      "magFilter": 9729,
      "minFilter": 9987,
      "wrapS": 10497,
      "wrapT": 10497
    }
  ],
  "scene": 0,
  "scenes": [
    {
      "name": "Sketchfab_Scene",
      "nodes": [
        0
      ]
    }
  ],
  "textures": [
    {
      "sampler": 0,
      "source": 0
    },
    {
      "sampler": 0,
      "source": 1
    }
  ]
}
